<svg width="2" height="2" viewBox="0 0 2 2" fill="none" xmlns="http://www.w3.org/2000/svg">
<g clip-path="url(#clip0_141_83)">
<path d="M1.26255 0.112305C1.14781 0.112305 1.05159 0.192264 1.0254 0.299745C1.02376 0.306498 1.01636 0.310283 1.01 0.307475C0.946554 0.279457 0.875955 0.264576 0.802569 0.264576C0.514944 0.264576 0.28125 0.49827 0.28125 0.785894V1.48486C0.28125 1.62127 0.392281 1.7323 0.528691 1.7323C0.665102 1.7323 0.776133 1.62127 0.776133 1.48486C0.776133 1.4542 0.800453 1.42988 0.831118 1.42988C1.10288 1.42988 1.32389 1.20887 1.32389 0.937107V0.785894C1.32389 0.755684 1.32136 0.725478 1.3163 0.696774C1.3153 0.691067 1.31894 0.685555 1.32455 0.684107C1.42939 0.657097 1.50682 0.561271 1.50682 0.448571V0.356574C1.50682 0.221221 1.39791 0.112305 1.26255 0.112305Z" fill="#2D2C2C"/>
<path d="M0.802557 0.417969C0.582608 0.417969 0.4039 0.596676 0.4039 0.816624V1.39293C0.4039 1.46166 0.459944 1.51771 0.528678 1.51771C0.597412 1.51771 0.653456 1.46166 0.653456 1.39293V1.31256C0.653456 1.25863 0.696811 1.21422 0.7518 1.21422H0.802557C1.0225 1.21422 1.20122 1.03551 1.20122 0.815568C1.20227 0.596676 1.02356 0.417969 0.802557 0.417969ZM0.95377 0.818741C0.95377 0.902275 0.886095 0.969954 0.802557 0.969954C0.719019 0.969954 0.651343 0.902275 0.651343 0.818741C0.651343 0.735203 0.719019 0.667524 0.802557 0.667524C0.886095 0.667524 0.95377 0.735203 0.95377 0.818741Z" fill="#F8F6F0"/>
<path d="M1.26257 0.478076C1.19489 0.478076 1.14096 0.424145 1.14096 0.356469C1.14096 0.288793 1.19489 0.234863 1.26257 0.234863C1.33024 0.234863 1.38417 0.288793 1.38417 0.356469C1.38417 0.423088 1.33024 0.478076 1.26257 0.478076Z" fill="#F26A5D"/>
</g>
<defs>
<clipPath id="clip0_141_83">
<rect width="1.8" height="1.8" fill="white"/>
</clipPath>
</defs>
</svg>
