<svg id="Group_6835" data-name="Group 6835" xmlns="http://www.w3.org/2000/svg" width="22" height="22" viewBox="0 0 22 22">
  <g id="Group_6908" data-name="Group 6908">
    <circle id="Ellipse_1294" data-name="Ellipse 1294" cx="11" cy="11" r="11" fill="#f77474"/>
    <path id="Line_70" data-name="Line 70" d="M0,5.75A.75.75,0,0,1-.75,5V0A.75.75,0,0,1,0-.75.75.75,0,0,1,.75,0V5A.75.75,0,0,1,0,5.75Z" transform="translate(11 7)" fill="#fff"/>
    <path id="Line_71" data-name="Line 71" d="M0,.743a.75.75,0,0,1-.75-.75V0A.75.75,0,0,1,0-.75.75.75,0,0,1,.75,0V-.007A.75.75,0,0,1,0,.743Z" transform="translate(11 15)" fill="#fff"/>
  </g>
</svg>